<svg width="21" height="16" viewBox="0 0 21 16" fill="none" xmlns="http://www.w3.org/2000/svg">
<path d="M3.16172 0H16.8625C17.701 0 18.5052 0.333109 19.0982 0.926046C19.6911 1.51898 20.0242 2.32318 20.0242 3.16172V12.6469C20.0242 13.4854 19.6911 14.2896 19.0982 14.8825C18.5052 15.4755 17.701 15.8086 16.8625 15.8086H3.16172C2.32318 15.8086 1.51898 15.4755 0.926046 14.8825C0.333109 14.2896 0 13.4854 0 12.6469V3.16172C0 2.32318 0.333109 1.51898 0.926046 0.926046C1.51898 0.333109 2.32318 0 3.16172 0ZM3.16172 1.05391C2.63477 1.05391 2.17105 1.23307 1.81272 1.54924L10.0121 6.85039L18.2115 1.54924C17.8532 1.23307 17.3895 1.05391 16.8625 1.05391H3.16172ZM10.0121 8.12562L1.19091 2.40291C1.1066 2.63477 1.05391 2.89824 1.05391 3.16172V12.6469C1.05391 13.2059 1.27598 13.742 1.67127 14.1373C2.06656 14.5326 2.60269 14.7547 3.16172 14.7547H16.8625C17.4215 14.7547 17.9577 14.5326 18.3529 14.1373C18.7482 13.742 18.9703 13.2059 18.9703 12.6469V3.16172C18.9703 2.89824 18.9176 2.63477 18.8333 2.40291L10.0121 8.12562Z" fill="#D5A310"/>
</svg>
