<svg width="21" height="21" viewBox="0 0 21 21" fill="none" xmlns="http://www.w3.org/2000/svg">
<path d="M19.7229 16.0711C18.97 15.3126 17.1467 14.2056 16.262 13.7595C15.11 13.1792 15.0152 13.1318 14.1097 13.8045C13.5057 14.2535 13.1041 14.6546 12.3973 14.5038C11.6904 14.3531 10.1544 13.503 8.80937 12.1623C7.46439 10.8216 6.56505 9.24097 6.41381 8.53648C6.26258 7.83198 6.67029 7.43517 7.11499 6.82976C7.74173 5.97641 7.69432 5.83418 7.1586 4.68215C6.74093 3.78612 5.6017 1.97985 4.84032 1.23079C4.02583 0.426266 4.02583 0.568492 3.50102 0.786572C3.07374 0.966304 2.66384 1.18482 2.27645 1.43939C1.51791 1.94335 1.09692 2.36196 0.802514 2.99108C0.508106 3.62019 0.375836 5.09508 1.89623 7.85711C3.41663 10.6191 4.48333 12.0315 6.69115 14.2331C8.89898 16.4348 10.5967 17.6186 13.0785 19.0105C16.1487 20.73 17.3264 20.3948 17.9574 20.1009C18.5884 19.807 19.0089 19.3898 19.5138 18.6312C19.769 18.2445 19.988 17.835 20.168 17.4081C20.3866 16.8852 20.5288 16.8852 19.7229 16.0711Z" stroke="#D5A310" stroke-width="1.23265" stroke-miterlimit="10"/>
</svg>
